<svg width="24" height="24" viewBox="0 0 24 24" fill="currentColor" xmlns="http://www.w3.org/2000/svg">
  <g>
    <path
      d="M5.3189 14.5037L4.4835 17.6223L1.43011 17.6869C0.517594 15.9944 0 14.058 0 12.0001C0 10.0102 0.483937 8.13375 1.34174 6.48145L4.06078 6.97983L5.2516 9.68188C5.00236 10.4085 4.86652 11.1885 4.86652 12.0001C4.86661 12.881 5.02618 13.725 5.3189 14.5037Z" />
    <path
      d="M23.7903 9.7583C23.9281 10.4842 24 11.2339 24 12C24 12.8592 23.9096 13.6972 23.7375 14.5056C23.1534 17.2564 21.627 19.6583 19.5126 21.3581L16.0879 21.1827L15.6033 18.1576C17.0064 17.3347 18.1029 16.0471 18.6805 14.5056H12.2637V9.7583H18.7741H23.7903Z" />
    <path
      d="M19.5119 21.3575C17.4554 23.0103 14.8438 24.0001 12 24.0001C7.43012 24.0001 3.45695 21.4459 1.43011 17.6869L5.31892 14.5037C6.33231 17.2082 8.94132 19.1335 12 19.1335C13.3147 19.1335 14.5464 18.7782 15.6032 18.1577L19.5119 21.3575Z" />
    <path
      d="M19.6595 2.76263L15.7721 5.94524C14.6783 5.26153 13.3853 4.86656 12 4.86656C8.87207 4.86656 6.21425 6.88018 5.25164 9.68174L1.3424 6.48131C3.33956 2.63076 7.36217 0 12 0C14.9116 0 17.5813 1.03716 19.6595 2.76263Z" />
  </g>
</svg>