<svg width="16" height="16" viewBox="0 0 16 16" fill="currentColor" xmlns="http://www.w3.org/2000/svg">
  <path
    d="M7.87823 5.46598L10.1686 7.75637L10.1795 7.6364C10.1795 6.43303 9.20158 5.45508 7.99821 5.45508L7.87823 5.46598Z" />
  <path
    d="M7.99819 3.9994C10.005 3.9994 11.6337 5.62813 11.6337 7.63495C11.6337 8.10393 11.5392 8.5511 11.3756 8.96191L13.5024 11.0887C14.6003 10.1725 15.4656 8.98737 16 7.63495C14.7385 4.44296 11.6374 2.18164 7.99822 2.18164C6.98026 2.18164 6.00596 2.36341 5.10071 2.6906L6.67126 4.25751C7.08203 4.09756 7.5292 3.9994 7.99819 3.9994Z" />
  <path
    d="M0.727096 2.01886L2.3849 3.67666L2.71575 4.00751C1.51602 4.94548 0.567144 6.19248 0 7.63576C1.25791 10.8278 4.36265 13.0891 7.99819 13.0891C9.12522 13.0891 10.2013 12.8709 11.1866 12.4747L11.4956 12.7837L13.6151 14.9068L14.5422 13.9834L1.65416 1.0918L0.727096 2.01886ZM4.74802 6.03614L5.8714 7.15952C5.83868 7.31586 5.81687 7.47216 5.81687 7.63576C5.81687 8.83914 6.79482 9.81709 7.99819 9.81709C8.16179 9.81709 8.31813 9.79527 8.47083 9.76255L9.59421 10.8859C9.11067 11.1259 8.57263 11.2713 7.99819 11.2713C5.99138 11.2713 4.36265 9.64258 4.36265 7.63576C4.36265 7.06136 4.50808 6.52329 4.74802 6.03614Z" />
</svg>