<?xml version="1.0" encoding="UTF-8"?>
<svg width="700" height="700" version="1.1" viewBox="0 0 700 700" xmlns="http://www.w3.org/2000/svg">
  <path
    d="m239.06 111 97.906 163.17-97.906 163.15-87.012-163.15zm206.41-5.9961 98 163.33h-196.4l-98-163.33zm113.84 169.84c0.046875-0.25781 0.27734-0.42187 0.27734-0.67969 0-0.27734-0.23047-0.41797-0.27734-0.69922-0.046875-0.53516-0.21094-0.93359-0.42188-1.4453-0.11719-0.28125 0.023437-0.58203-0.11719-0.86328l-105-175c-0.14062-0.23437-0.44141-0.23437-0.60547-0.42187-0.46875-0.62891-1.0508-0.91016-1.75-1.3047-0.67578-0.375-1.2148-0.72266-1.9609-0.81641-0.25781-0.046875-0.41797-0.28125-0.69922-0.28125h-210c-0.30469 0-0.51172 0.28125-0.81641 0.32812-0.53906 0.09375-0.93359 0.16406-1.4258 0.37109-0.25391 0.11719-0.51172-0.023437-0.74609 0.11719-0.23047 0.14062-0.23047 0.44531-0.44141 0.60547-0.44531 0.32812-0.69922 0.65625-1.0273 1.0977-0.1875 0.23438-0.53516 0.28125-0.67578 0.5625l-93.336 175c-0.11328 0.18359 0.023438 0.39453-0.066406 0.58203-0.30469 0.72266-0.21094 1.375-0.21094 2.168 0 0.77344-0.09375 1.4492 0.21094 2.1484 0.089844 0.1875-0.046875 0.39844 0.066406 0.58203l93.336 175c0.1875 0.375 0.53516 0.53906 0.79297 0.83984 0.23438 0.30469 0.41797 0.51562 0.72266 0.75 0.21094 0.20703 0.35156 0.48828 0.60547 0.65234 0 0 0 0.023438 0.023437 0.023438 0.91016 0.53516 1.9375 0.83984 2.9883 0.83984h210c1.3516 0 2.5664-0.62891 3.6406-1.4961 0.25391-0.23047 0.46484-0.41797 0.67578-0.69922 0.23438-0.23047 0.51172-0.37109 0.69922-0.65234l105-175c0.14062-0.28125 0-0.58203 0.11719-0.86328 0.21094-0.51172 0.375-0.91016 0.42188-1.4453z"
    fill-rule="evenodd" fill="currentColor" />
</svg>